<svg width="56" height="40" viewBox="0 0 56 40" fill="none" xmlns="http://www.w3.org/2000/svg">
<path d="M53.1075 4.50214C53.1075 4.71517 52.9553 4.8369 52.651 4.86733C51.038 4.9282 50.0185 5.11079 49.5925 5.41512C49.1969 5.71945 48.7556 6.58678 48.2687 8.01712C48.0252 8.68664 47.66 9.70613 47.1731 11.0756C45.5602 15.5492 42.9582 23.0965 39.3671 33.7175C38.8802 35.2392 38.5302 36 38.3172 36C38.0433 36 37.815 35.7261 37.6324 35.1783C37.2368 33.9306 36.7347 32.5155 36.126 30.933C35.213 28.4679 33.9805 25.1964 32.4284 21.1184C31.7589 19.3229 30.7242 16.66 29.3243 13.1298C28.5635 11.2126 27.8027 9.08226 27.0418 6.73894C26.6462 5.46077 25.8245 4.8369 24.5768 4.86733L23.0704 4.91298C22.7052 4.91298 22.5226 4.77603 22.5226 4.50214C22.5226 4.22824 23.0704 4.0913 24.166 4.0913L31.8806 4.13695C32.2154 4.13695 32.6262 4.13695 33.1132 4.13695C33.6305 4.10651 34.2087 4.0913 34.8478 4.0913H37.4042C37.9824 4.0913 38.2715 4.22824 38.2715 4.50214C38.2715 4.7456 37.7389 4.88255 36.6738 4.91298C34.9391 4.94341 34.0718 5.21731 34.0718 5.73466C34.0718 5.79553 34.3305 6.602 34.8478 8.15406C37.1607 15.0927 39.1997 20.7684 40.9648 25.1812C41.3604 24.2073 42.0908 22.1835 43.156 19.1098C43.4299 18.2882 44.0689 16.4318 45.0732 13.5407C46.5036 9.37137 47.2187 6.83024 47.2187 5.91726C47.2187 5.36947 46.9905 5.04993 46.534 4.95863C46.3514 4.9282 45.6514 4.89776 44.4341 4.86733C43.8255 4.86733 43.5212 4.71517 43.5212 4.41084C43.5212 4.13695 43.7342 4 44.1602 4H46.3057L47.9035 4.04565H49.0903C49.3947 4.04565 49.7446 4.03043 50.1403 4C50.5663 4 51.0533 4 51.601 4H52.4227C52.8792 4 53.1075 4.16738 53.1075 4.50214Z" fill="white"/>
<path d="M23.8616 18.836C25.4441 13.3276 26.7223 9.31052 27.6961 6.78461L28.7042 4.13696H27.194L21.0314 25.1812C19.2359 19.612 17.0447 12.6125 14.4579 4.18261C14.2145 4.15218 14.0471 4.13696 13.9558 4.13696L5.3281 4.18261L4.09558 4.13696C3.57822 4.10653 3.31954 4.24348 3.31954 4.5478C3.31954 4.8217 3.56301 4.95865 4.04993 4.95865C5.93676 4.95865 7.01712 5.17167 7.29101 5.59773C7.59534 5.99336 7.7475 7.40848 7.7475 9.8431V31.6177C7.7475 32.7741 7.70185 33.535 7.61056 33.9002C7.45839 34.4784 6.9106 34.8284 5.96719 34.9501C5.72373 34.9805 4.99334 34.9957 3.77603 34.9957C3.25868 34.9957 3 35.1175 3 35.3609C3 35.6348 3.31954 35.7718 3.95863 35.7718C4.38469 35.7718 5.20637 35.7413 6.42368 35.6805C7.33666 35.6196 8.14313 35.6044 8.84308 35.6348L12.9058 35.7261C13.3623 35.7261 13.5906 35.6196 13.5906 35.4066C13.5906 35.0414 13.0428 34.874 11.9472 34.9044C10.8516 34.9349 10.0756 34.7523 9.61911 34.3566C9.37565 34.1741 9.23871 33.961 9.20827 33.7176C9.17784 33.4437 9.16262 32.622 9.16262 31.2525V7.65194C12.2668 17.3295 14.1688 23.2183 14.8688 25.3181L17.7903 34.0828C18.0642 34.9349 18.3685 35.3609 18.7033 35.3609C19.0076 35.3609 19.4032 34.5088 19.8902 32.8046L23.8616 18.836Z" fill="white"/>
</svg>
